<mxfile host="app.diagrams.net" modified="2021-11-17T19:34:08.359Z" agent="5.0 (Windows NT 10.0; Win64; x64) AppleWebKit/537.36 (KHTML, like Gecko) Chrome/95.0.4638.69 Safari/537.36" etag="KlDy63wPB60Qp8c3QIti" version="15.7.4" type="github">
  <diagram id="R2lEEEUBdFMjLlhIrx00" name="Page-1">
    <mxGraphModel dx="1054" dy="650" grid="1" gridSize="10" guides="1" tooltips="1" connect="1" arrows="1" fold="1" page="1" pageScale="1" pageWidth="850" pageHeight="1100" math="0" shadow="0" extFonts="Permanent Marker^https://fonts.googleapis.com/css?family=Permanent+Marker">
      <root>
        <mxCell id="0" />
        <mxCell id="1" parent="0" />
        <mxCell id="ZdWGNfyRv0KmOVRU79v5-1" value="User" style="whiteSpace=wrap;html=1;align=center;" vertex="1" parent="1">
          <mxGeometry x="140" y="370" width="100" height="40" as="geometry" />
        </mxCell>
        <mxCell id="ZdWGNfyRv0KmOVRU79v5-2" value="Charging Station" style="whiteSpace=wrap;html=1;align=center;" vertex="1" parent="1">
          <mxGeometry x="311.43" y="560" width="100" height="40" as="geometry" />
        </mxCell>
        <mxCell id="ZdWGNfyRv0KmOVRU79v5-3" value="Car" style="whiteSpace=wrap;html=1;align=center;" vertex="1" parent="1">
          <mxGeometry x="480" y="370" width="100" height="40" as="geometry" />
        </mxCell>
        <mxCell id="ZdWGNfyRv0KmOVRU79v5-4" value="" style="endArrow=none;html=1;rounded=0;exitX=1;exitY=0.5;exitDx=0;exitDy=0;entryX=0;entryY=0.5;entryDx=0;entryDy=0;" edge="1" parent="1" source="ZdWGNfyRv0KmOVRU79v5-1" target="ZdWGNfyRv0KmOVRU79v5-3">
          <mxGeometry relative="1" as="geometry">
            <mxPoint x="290" y="390" as="sourcePoint" />
            <mxPoint x="450" y="390" as="targetPoint" />
          </mxGeometry>
        </mxCell>
        <mxCell id="ZdWGNfyRv0KmOVRU79v5-5" value="M" style="resizable=0;html=1;align=left;verticalAlign=bottom;" connectable="0" vertex="1" parent="ZdWGNfyRv0KmOVRU79v5-4">
          <mxGeometry x="-1" relative="1" as="geometry" />
        </mxCell>
        <mxCell id="ZdWGNfyRv0KmOVRU79v5-6" value="N" style="resizable=0;html=1;align=right;verticalAlign=bottom;" connectable="0" vertex="1" parent="ZdWGNfyRv0KmOVRU79v5-4">
          <mxGeometry x="1" relative="1" as="geometry">
            <mxPoint x="-10" y="-10" as="offset" />
          </mxGeometry>
        </mxCell>
        <mxCell id="ZdWGNfyRv0KmOVRU79v5-7" value="drives" style="shape=rhombus;perimeter=rhombusPerimeter;whiteSpace=wrap;html=1;align=center;" vertex="1" parent="1">
          <mxGeometry x="300" y="360" width="120" height="60" as="geometry" />
        </mxCell>
        <mxCell id="ZdWGNfyRv0KmOVRU79v5-8" value="" style="endArrow=none;html=1;rounded=0;exitX=1;exitY=0.5;exitDx=0;exitDy=0;entryX=0.5;entryY=0;entryDx=0;entryDy=0;startArrow=none;" edge="1" parent="1" source="ZdWGNfyRv0KmOVRU79v5-11" target="ZdWGNfyRv0KmOVRU79v5-3">
          <mxGeometry relative="1" as="geometry">
            <mxPoint x="190" y="250" as="sourcePoint" />
            <mxPoint x="530" y="280" as="targetPoint" />
            <Array as="points">
              <mxPoint x="530" y="280" />
            </Array>
          </mxGeometry>
        </mxCell>
        <mxCell id="ZdWGNfyRv0KmOVRU79v5-10" value="N" style="resizable=0;html=1;align=right;verticalAlign=bottom;" connectable="0" vertex="1" parent="ZdWGNfyRv0KmOVRU79v5-8">
          <mxGeometry x="1" relative="1" as="geometry">
            <mxPoint x="-10" y="-10" as="offset" />
          </mxGeometry>
        </mxCell>
        <mxCell id="ZdWGNfyRv0KmOVRU79v5-11" value="owns" style="shape=rhombus;perimeter=rhombusPerimeter;whiteSpace=wrap;html=1;align=center;" vertex="1" parent="1">
          <mxGeometry x="300" y="250" width="120" height="60" as="geometry" />
        </mxCell>
        <mxCell id="ZdWGNfyRv0KmOVRU79v5-15" value="" style="endArrow=none;html=1;rounded=0;exitX=0.5;exitY=0;exitDx=0;exitDy=0;entryX=0;entryY=0.5;entryDx=0;entryDy=0;" edge="1" parent="1" source="ZdWGNfyRv0KmOVRU79v5-1" target="ZdWGNfyRv0KmOVRU79v5-11">
          <mxGeometry relative="1" as="geometry">
            <mxPoint x="190" y="370" as="sourcePoint" />
            <mxPoint x="530" y="370" as="targetPoint" />
            <Array as="points">
              <mxPoint x="190" y="280" />
            </Array>
          </mxGeometry>
        </mxCell>
        <mxCell id="ZdWGNfyRv0KmOVRU79v5-16" value="M" style="resizable=0;html=1;align=left;verticalAlign=bottom;" connectable="0" vertex="1" parent="ZdWGNfyRv0KmOVRU79v5-15">
          <mxGeometry x="-1" relative="1" as="geometry">
            <mxPoint y="-10" as="offset" />
          </mxGeometry>
        </mxCell>
        <mxCell id="ZdWGNfyRv0KmOVRU79v5-19" value="" style="endArrow=none;html=1;rounded=0;exitX=1;exitY=0.5;exitDx=0;exitDy=0;entryX=0;entryY=0.5;entryDx=0;entryDy=0;startArrow=none;" edge="1" parent="1" source="ZdWGNfyRv0KmOVRU79v5-18" target="ZdWGNfyRv0KmOVRU79v5-2">
          <mxGeometry relative="1" as="geometry">
            <mxPoint x="141.43" y="580" as="sourcePoint" />
            <mxPoint x="301.43" y="580" as="targetPoint" />
          </mxGeometry>
        </mxCell>
        <mxCell id="ZdWGNfyRv0KmOVRU79v5-21" value="N" style="resizable=0;html=1;align=right;verticalAlign=bottom;" connectable="0" vertex="1" parent="ZdWGNfyRv0KmOVRU79v5-19">
          <mxGeometry x="1" relative="1" as="geometry" />
        </mxCell>
        <mxCell id="ZdWGNfyRv0KmOVRU79v5-18" value="reviews" style="shape=rhombus;perimeter=rhombusPerimeter;whiteSpace=wrap;html=1;align=center;" vertex="1" parent="1">
          <mxGeometry x="131.43" y="550" width="120" height="60" as="geometry" />
        </mxCell>
        <mxCell id="ZdWGNfyRv0KmOVRU79v5-23" value="" style="endArrow=none;html=1;rounded=0;exitX=0.5;exitY=1;exitDx=0;exitDy=0;" edge="1" parent="1" source="ZdWGNfyRv0KmOVRU79v5-1" target="ZdWGNfyRv0KmOVRU79v5-18">
          <mxGeometry relative="1" as="geometry">
            <mxPoint x="190" y="410" as="sourcePoint" />
            <mxPoint x="310" y="540" as="targetPoint" />
          </mxGeometry>
        </mxCell>
        <mxCell id="ZdWGNfyRv0KmOVRU79v5-24" value="M" style="resizable=0;html=1;align=left;verticalAlign=bottom;" connectable="0" vertex="1" parent="ZdWGNfyRv0KmOVRU79v5-23">
          <mxGeometry x="-1" relative="1" as="geometry">
            <mxPoint x="10" y="30" as="offset" />
          </mxGeometry>
        </mxCell>
        <mxCell id="ZdWGNfyRv0KmOVRU79v5-26" value="" style="endArrow=none;html=1;rounded=0;entryX=0.5;entryY=1;entryDx=0;entryDy=0;exitX=0.5;exitY=0;exitDx=0;exitDy=0;startArrow=none;" edge="1" parent="1" source="ZdWGNfyRv0KmOVRU79v5-29" target="ZdWGNfyRv0KmOVRU79v5-3">
          <mxGeometry relative="1" as="geometry">
            <mxPoint x="530" y="690" as="sourcePoint" />
            <mxPoint x="690" y="690" as="targetPoint" />
          </mxGeometry>
        </mxCell>
        <mxCell id="ZdWGNfyRv0KmOVRU79v5-27" value="N" style="resizable=0;html=1;align=right;verticalAlign=bottom;" connectable="0" vertex="1" parent="ZdWGNfyRv0KmOVRU79v5-26">
          <mxGeometry x="1" relative="1" as="geometry">
            <mxPoint x="-10" y="30" as="offset" />
          </mxGeometry>
        </mxCell>
        <mxCell id="ZdWGNfyRv0KmOVRU79v5-29" value="occupy" style="shape=rhombus;perimeter=rhombusPerimeter;whiteSpace=wrap;html=1;align=center;" vertex="1" parent="1">
          <mxGeometry x="471.43" y="720" width="120" height="60" as="geometry" />
        </mxCell>
        <mxCell id="ZdWGNfyRv0KmOVRU79v5-32" value="has" style="shape=rhombus;double=1;perimeter=rhombusPerimeter;whiteSpace=wrap;html=1;align=center;" vertex="1" parent="1">
          <mxGeometry x="600" y="360" width="120" height="60" as="geometry" />
        </mxCell>
        <mxCell id="ZdWGNfyRv0KmOVRU79v5-33" value="Health" style="shape=ext;margin=3;double=1;whiteSpace=wrap;html=1;align=center;" vertex="1" parent="1">
          <mxGeometry x="740" y="370" width="100" height="40" as="geometry" />
        </mxCell>
        <mxCell id="ZdWGNfyRv0KmOVRU79v5-34" value="" style="shape=link;html=1;rounded=0;" edge="1" parent="1" source="ZdWGNfyRv0KmOVRU79v5-32" target="ZdWGNfyRv0KmOVRU79v5-33">
          <mxGeometry relative="1" as="geometry">
            <mxPoint x="691.43" y="400" as="sourcePoint" />
            <mxPoint x="841.43" y="400" as="targetPoint" />
          </mxGeometry>
        </mxCell>
        <mxCell id="ZdWGNfyRv0KmOVRU79v5-35" value="1" style="resizable=0;html=1;align=right;verticalAlign=bottom;" connectable="0" vertex="1" parent="ZdWGNfyRv0KmOVRU79v5-34">
          <mxGeometry x="1" relative="1" as="geometry">
            <mxPoint x="-11" y="30" as="offset" />
          </mxGeometry>
        </mxCell>
        <mxCell id="ZdWGNfyRv0KmOVRU79v5-36" value="" style="endArrow=none;html=1;rounded=0;" edge="1" parent="1" source="ZdWGNfyRv0KmOVRU79v5-32" target="ZdWGNfyRv0KmOVRU79v5-3">
          <mxGeometry relative="1" as="geometry">
            <mxPoint x="400" y="770" as="sourcePoint" />
            <mxPoint x="560" y="770" as="targetPoint" />
          </mxGeometry>
        </mxCell>
        <mxCell id="ZdWGNfyRv0KmOVRU79v5-37" value="1" style="resizable=0;html=1;align=right;verticalAlign=bottom;" connectable="0" vertex="1" parent="ZdWGNfyRv0KmOVRU79v5-36">
          <mxGeometry x="1" relative="1" as="geometry">
            <mxPoint x="20" y="30" as="offset" />
          </mxGeometry>
        </mxCell>
        <mxCell id="ZdWGNfyRv0KmOVRU79v5-38" value="date" style="ellipse;whiteSpace=wrap;html=1;align=center;" vertex="1" parent="1">
          <mxGeometry x="20" y="600" width="100" height="40" as="geometry" />
        </mxCell>
        <mxCell id="ZdWGNfyRv0KmOVRU79v5-39" value="" style="endArrow=none;html=1;rounded=0;" edge="1" parent="1" source="ZdWGNfyRv0KmOVRU79v5-38" target="ZdWGNfyRv0KmOVRU79v5-18">
          <mxGeometry relative="1" as="geometry">
            <mxPoint x="129.99953381770518" y="641.4304661822948" as="sourcePoint" />
            <mxPoint x="211.43" y="660" as="targetPoint" />
          </mxGeometry>
        </mxCell>
        <mxCell id="ZdWGNfyRv0KmOVRU79v5-40" value="until" style="ellipse;whiteSpace=wrap;html=1;align=center;" vertex="1" parent="1">
          <mxGeometry x="561.43" y="820" width="100" height="40" as="geometry" />
        </mxCell>
        <mxCell id="ZdWGNfyRv0KmOVRU79v5-42" value="from" style="ellipse;whiteSpace=wrap;html=1;align=center;" vertex="1" parent="1">
          <mxGeometry x="411.43" y="820" width="100" height="40" as="geometry" />
        </mxCell>
        <mxCell id="ZdWGNfyRv0KmOVRU79v5-43" value="" style="endArrow=none;html=1;rounded=0;" edge="1" parent="1" source="ZdWGNfyRv0KmOVRU79v5-29" target="ZdWGNfyRv0KmOVRU79v5-40">
          <mxGeometry relative="1" as="geometry">
            <mxPoint x="411.43" y="630" as="sourcePoint" />
            <mxPoint x="571.43" y="630" as="targetPoint" />
          </mxGeometry>
        </mxCell>
        <mxCell id="ZdWGNfyRv0KmOVRU79v5-44" value="" style="endArrow=none;html=1;rounded=0;" edge="1" parent="1" source="ZdWGNfyRv0KmOVRU79v5-42" target="ZdWGNfyRv0KmOVRU79v5-29">
          <mxGeometry relative="1" as="geometry">
            <mxPoint x="361.43" y="640" as="sourcePoint" />
            <mxPoint x="521.43" y="640" as="targetPoint" />
          </mxGeometry>
        </mxCell>
        <mxCell id="ZdWGNfyRv0KmOVRU79v5-45" value="RSA" style="whiteSpace=wrap;html=1;align=center;" vertex="1" parent="1">
          <mxGeometry x="311.43" y="30" width="100" height="40" as="geometry" />
        </mxCell>
        <mxCell id="ZdWGNfyRv0KmOVRU79v5-46" value="calls" style="shape=rhombus;perimeter=rhombusPerimeter;whiteSpace=wrap;html=1;align=center;" vertex="1" parent="1">
          <mxGeometry x="300" y="140" width="120" height="60" as="geometry" />
        </mxCell>
        <mxCell id="ZdWGNfyRv0KmOVRU79v5-49" value="" style="endArrow=none;html=1;rounded=0;" edge="1" parent="1" source="ZdWGNfyRv0KmOVRU79v5-46" target="ZdWGNfyRv0KmOVRU79v5-45">
          <mxGeometry relative="1" as="geometry">
            <mxPoint x="40" y="390" as="sourcePoint" />
            <mxPoint x="500" y="155.26315789473688" as="targetPoint" />
          </mxGeometry>
        </mxCell>
        <mxCell id="ZdWGNfyRv0KmOVRU79v5-50" value="1" style="resizable=0;html=1;align=right;verticalAlign=bottom;" connectable="0" vertex="1" parent="ZdWGNfyRv0KmOVRU79v5-49">
          <mxGeometry x="1" relative="1" as="geometry">
            <mxPoint x="-10" y="20" as="offset" />
          </mxGeometry>
        </mxCell>
        <mxCell id="ZdWGNfyRv0KmOVRU79v5-51" value="Connector" style="shape=ext;margin=3;double=1;whiteSpace=wrap;html=1;align=center;" vertex="1" parent="1">
          <mxGeometry x="311.43" y="730" width="100" height="40" as="geometry" />
        </mxCell>
        <mxCell id="ZdWGNfyRv0KmOVRU79v5-52" value="" style="endArrow=none;html=1;rounded=0;" edge="1" parent="1" source="ZdWGNfyRv0KmOVRU79v5-29" target="ZdWGNfyRv0KmOVRU79v5-51">
          <mxGeometry relative="1" as="geometry">
            <mxPoint x="411.43" y="510" as="sourcePoint" />
            <mxPoint x="571.43" y="510" as="targetPoint" />
          </mxGeometry>
        </mxCell>
        <mxCell id="ZdWGNfyRv0KmOVRU79v5-53" value="1" style="resizable=0;html=1;align=right;verticalAlign=bottom;" connectable="0" vertex="1" parent="ZdWGNfyRv0KmOVRU79v5-52">
          <mxGeometry x="1" relative="1" as="geometry">
            <mxPoint x="20" y="-10" as="offset" />
          </mxGeometry>
        </mxCell>
        <mxCell id="ZdWGNfyRv0KmOVRU79v5-54" value="has" style="shape=rhombus;double=1;perimeter=rhombusPerimeter;whiteSpace=wrap;html=1;align=center;" vertex="1" parent="1">
          <mxGeometry x="301.43" y="640" width="120" height="60" as="geometry" />
        </mxCell>
        <mxCell id="ZdWGNfyRv0KmOVRU79v5-55" value="" style="shape=link;html=1;rounded=0;" edge="1" parent="1" source="ZdWGNfyRv0KmOVRU79v5-54" target="ZdWGNfyRv0KmOVRU79v5-51">
          <mxGeometry relative="1" as="geometry">
            <mxPoint x="211.43" y="830" as="sourcePoint" />
            <mxPoint x="371.43" y="830" as="targetPoint" />
          </mxGeometry>
        </mxCell>
        <mxCell id="ZdWGNfyRv0KmOVRU79v5-56" value="N" style="resizable=0;html=1;align=right;verticalAlign=bottom;" connectable="0" vertex="1" parent="ZdWGNfyRv0KmOVRU79v5-55">
          <mxGeometry x="1" relative="1" as="geometry">
            <mxPoint x="-10" y="-10" as="offset" />
          </mxGeometry>
        </mxCell>
        <mxCell id="ZdWGNfyRv0KmOVRU79v5-57" value="" style="endArrow=none;html=1;rounded=0;" edge="1" parent="1" source="ZdWGNfyRv0KmOVRU79v5-54" target="ZdWGNfyRv0KmOVRU79v5-2">
          <mxGeometry relative="1" as="geometry">
            <mxPoint x="101.43" y="800" as="sourcePoint" />
            <mxPoint x="261.43" y="800" as="targetPoint" />
          </mxGeometry>
        </mxCell>
        <mxCell id="ZdWGNfyRv0KmOVRU79v5-58" value="1" style="resizable=0;html=1;align=right;verticalAlign=bottom;" connectable="0" vertex="1" parent="ZdWGNfyRv0KmOVRU79v5-57">
          <mxGeometry x="1" relative="1" as="geometry">
            <mxPoint y="20" as="offset" />
          </mxGeometry>
        </mxCell>
        <mxCell id="ZdWGNfyRv0KmOVRU79v5-61" value="" style="endArrow=none;html=1;rounded=0;entryX=0.25;entryY=0;entryDx=0;entryDy=0;" edge="1" parent="1" source="ZdWGNfyRv0KmOVRU79v5-46" target="ZdWGNfyRv0KmOVRU79v5-1">
          <mxGeometry relative="1" as="geometry">
            <mxPoint x="10" y="470" as="sourcePoint" />
            <mxPoint x="100" y="390" as="targetPoint" />
            <Array as="points">
              <mxPoint x="165" y="170" />
            </Array>
          </mxGeometry>
        </mxCell>
        <mxCell id="ZdWGNfyRv0KmOVRU79v5-62" value="1" style="resizable=0;html=1;align=right;verticalAlign=bottom;" connectable="0" vertex="1" parent="ZdWGNfyRv0KmOVRU79v5-61">
          <mxGeometry x="1" relative="1" as="geometry" />
        </mxCell>
        <mxCell id="ZdWGNfyRv0KmOVRU79v5-63" value="user_location" style="ellipse;whiteSpace=wrap;html=1;align=center;" vertex="1" parent="1">
          <mxGeometry x="450" y="210" width="100" height="40" as="geometry" />
        </mxCell>
        <mxCell id="ZdWGNfyRv0KmOVRU79v5-64" value="" style="endArrow=none;html=1;rounded=0;" edge="1" parent="1" source="ZdWGNfyRv0KmOVRU79v5-46" target="ZdWGNfyRv0KmOVRU79v5-63">
          <mxGeometry relative="1" as="geometry">
            <mxPoint x="-10" y="480" as="sourcePoint" />
            <mxPoint x="150" y="480" as="targetPoint" />
          </mxGeometry>
        </mxCell>
        <mxCell id="ZdWGNfyRv0KmOVRU79v5-66" value="userID" style="ellipse;whiteSpace=wrap;html=1;align=center;fontStyle=4;" vertex="1" parent="1">
          <mxGeometry x="20" y="280" width="100" height="40" as="geometry" />
        </mxCell>
        <mxCell id="ZdWGNfyRv0KmOVRU79v5-68" value="latitude" style="ellipse;whiteSpace=wrap;html=1;align=center;" vertex="1" parent="1">
          <mxGeometry x="10" y="410" width="100" height="40" as="geometry" />
        </mxCell>
        <mxCell id="ZdWGNfyRv0KmOVRU79v5-69" value="longtidude" style="ellipse;whiteSpace=wrap;html=1;align=center;" vertex="1" parent="1">
          <mxGeometry x="70" y="460" width="100" height="40" as="geometry" />
        </mxCell>
        <mxCell id="ZdWGNfyRv0KmOVRU79v5-70" value="phoneNumber" style="ellipse;whiteSpace=wrap;html=1;align=center;" vertex="1" parent="1">
          <mxGeometry x="10" y="350" width="100" height="40" as="geometry" />
        </mxCell>
        <mxCell id="ZdWGNfyRv0KmOVRU79v5-71" value="" style="endArrow=none;html=1;rounded=0;" edge="1" parent="1" source="ZdWGNfyRv0KmOVRU79v5-66" target="ZdWGNfyRv0KmOVRU79v5-1">
          <mxGeometry relative="1" as="geometry">
            <mxPoint x="340" y="440" as="sourcePoint" />
            <mxPoint x="500" y="440" as="targetPoint" />
          </mxGeometry>
        </mxCell>
        <mxCell id="ZdWGNfyRv0KmOVRU79v5-72" value="" style="endArrow=none;html=1;rounded=0;" edge="1" parent="1" source="ZdWGNfyRv0KmOVRU79v5-70" target="ZdWGNfyRv0KmOVRU79v5-1">
          <mxGeometry relative="1" as="geometry">
            <mxPoint x="300" y="470" as="sourcePoint" />
            <mxPoint x="460" y="470" as="targetPoint" />
          </mxGeometry>
        </mxCell>
        <mxCell id="ZdWGNfyRv0KmOVRU79v5-74" value="" style="endArrow=none;html=1;rounded=0;" edge="1" parent="1" source="ZdWGNfyRv0KmOVRU79v5-68" target="ZdWGNfyRv0KmOVRU79v5-1">
          <mxGeometry relative="1" as="geometry">
            <mxPoint x="230" y="490" as="sourcePoint" />
            <mxPoint x="390" y="490" as="targetPoint" />
          </mxGeometry>
        </mxCell>
        <mxCell id="ZdWGNfyRv0KmOVRU79v5-75" value="" style="endArrow=none;html=1;rounded=0;" edge="1" parent="1" source="ZdWGNfyRv0KmOVRU79v5-69" target="ZdWGNfyRv0KmOVRU79v5-1">
          <mxGeometry relative="1" as="geometry">
            <mxPoint x="340" y="500" as="sourcePoint" />
            <mxPoint x="500" y="500" as="targetPoint" />
          </mxGeometry>
        </mxCell>
        <mxCell id="ZdWGNfyRv0KmOVRU79v5-76" value="longtidude" style="ellipse;whiteSpace=wrap;html=1;align=center;" vertex="1" parent="1">
          <mxGeometry x="330" y="460" width="100" height="40" as="geometry" />
        </mxCell>
        <mxCell id="ZdWGNfyRv0KmOVRU79v5-77" value="latitude" style="ellipse;whiteSpace=wrap;html=1;align=center;" vertex="1" parent="1">
          <mxGeometry x="260" y="510" width="100" height="40" as="geometry" />
        </mxCell>
        <mxCell id="ZdWGNfyRv0KmOVRU79v5-78" value="" style="endArrow=none;html=1;rounded=0;" edge="1" parent="1" source="ZdWGNfyRv0KmOVRU79v5-76" target="ZdWGNfyRv0KmOVRU79v5-2">
          <mxGeometry relative="1" as="geometry">
            <mxPoint x="100" y="840" as="sourcePoint" />
            <mxPoint x="260" y="840" as="targetPoint" />
          </mxGeometry>
        </mxCell>
        <mxCell id="ZdWGNfyRv0KmOVRU79v5-79" value="" style="endArrow=none;html=1;rounded=0;" edge="1" parent="1" source="ZdWGNfyRv0KmOVRU79v5-77" target="ZdWGNfyRv0KmOVRU79v5-2">
          <mxGeometry relative="1" as="geometry">
            <mxPoint x="170" y="810" as="sourcePoint" />
            <mxPoint x="330" y="810" as="targetPoint" />
          </mxGeometry>
        </mxCell>
        <mxCell id="ZdWGNfyRv0KmOVRU79v5-80" value="stars" style="ellipse;whiteSpace=wrap;html=1;align=center;" vertex="1" parent="1">
          <mxGeometry x="10" y="540" width="100" height="40" as="geometry" />
        </mxCell>
        <mxCell id="ZdWGNfyRv0KmOVRU79v5-81" value="" style="endArrow=none;html=1;rounded=0;" edge="1" parent="1" source="ZdWGNfyRv0KmOVRU79v5-80" target="ZdWGNfyRv0KmOVRU79v5-18">
          <mxGeometry relative="1" as="geometry">
            <mxPoint x="50" y="620" as="sourcePoint" />
            <mxPoint x="210" y="560" as="targetPoint" />
          </mxGeometry>
        </mxCell>
        <mxCell id="ZdWGNfyRv0KmOVRU79v5-82" value="comment" style="ellipse;whiteSpace=wrap;html=1;align=center;" vertex="1" parent="1">
          <mxGeometry x="60" y="650" width="100" height="40" as="geometry" />
        </mxCell>
        <mxCell id="ZdWGNfyRv0KmOVRU79v5-83" value="" style="endArrow=none;html=1;rounded=0;" edge="1" parent="1" source="ZdWGNfyRv0KmOVRU79v5-82" target="ZdWGNfyRv0KmOVRU79v5-18">
          <mxGeometry relative="1" as="geometry">
            <mxPoint x="30" y="760" as="sourcePoint" />
            <mxPoint x="190" y="760" as="targetPoint" />
          </mxGeometry>
        </mxCell>
        <mxCell id="ZdWGNfyRv0KmOVRU79v5-84" value="meanStars" style="ellipse;whiteSpace=wrap;html=1;align=center;" vertex="1" parent="1">
          <mxGeometry x="400" y="510" width="100" height="40" as="geometry" />
        </mxCell>
        <mxCell id="ZdWGNfyRv0KmOVRU79v5-85" value="" style="endArrow=none;html=1;rounded=0;" edge="1" parent="1" source="ZdWGNfyRv0KmOVRU79v5-84" target="ZdWGNfyRv0KmOVRU79v5-2">
          <mxGeometry relative="1" as="geometry">
            <mxPoint x="40" y="750" as="sourcePoint" />
            <mxPoint x="200" y="750" as="targetPoint" />
          </mxGeometry>
        </mxCell>
        <mxCell id="ZdWGNfyRv0KmOVRU79v5-86" value="availability" style="ellipse;whiteSpace=wrap;html=1;align=center;" vertex="1" parent="1">
          <mxGeometry x="250" y="810" width="100" height="40" as="geometry" />
        </mxCell>
        <mxCell id="ZdWGNfyRv0KmOVRU79v5-87" value="" style="endArrow=none;html=1;rounded=0;" edge="1" parent="1" source="ZdWGNfyRv0KmOVRU79v5-51" target="ZdWGNfyRv0KmOVRU79v5-86">
          <mxGeometry relative="1" as="geometry">
            <mxPoint x="100" y="820" as="sourcePoint" />
            <mxPoint x="260" y="820" as="targetPoint" />
          </mxGeometry>
        </mxCell>
        <mxCell id="ZdWGNfyRv0KmOVRU79v5-88" value="name" style="ellipse;whiteSpace=wrap;html=1;align=center;" vertex="1" parent="1">
          <mxGeometry x="550" y="250" width="100" height="40" as="geometry" />
        </mxCell>
        <mxCell id="ZdWGNfyRv0KmOVRU79v5-89" value="carID" style="ellipse;whiteSpace=wrap;html=1;align=center;" vertex="1" parent="1">
          <mxGeometry x="580" y="300" width="100" height="40" as="geometry" />
        </mxCell>
        <mxCell id="ZdWGNfyRv0KmOVRU79v5-90" value="photo" style="ellipse;whiteSpace=wrap;html=1;align=center;" vertex="1" parent="1">
          <mxGeometry x="591.43" y="430" width="100" height="40" as="geometry" />
        </mxCell>
        <mxCell id="ZdWGNfyRv0KmOVRU79v5-91" value="notes" style="ellipse;whiteSpace=wrap;html=1;align=center;" vertex="1" parent="1">
          <mxGeometry x="540" y="490" width="100" height="40" as="geometry" />
        </mxCell>
        <mxCell id="ZdWGNfyRv0KmOVRU79v5-92" value="" style="endArrow=none;html=1;rounded=0;" edge="1" parent="1" source="ZdWGNfyRv0KmOVRU79v5-88" target="ZdWGNfyRv0KmOVRU79v5-3">
          <mxGeometry relative="1" as="geometry">
            <mxPoint x="630" y="600" as="sourcePoint" />
            <mxPoint x="790" y="600" as="targetPoint" />
          </mxGeometry>
        </mxCell>
        <mxCell id="ZdWGNfyRv0KmOVRU79v5-93" value="" style="endArrow=none;html=1;rounded=0;" edge="1" parent="1" source="ZdWGNfyRv0KmOVRU79v5-3" target="ZdWGNfyRv0KmOVRU79v5-89">
          <mxGeometry relative="1" as="geometry">
            <mxPoint x="670" y="590" as="sourcePoint" />
            <mxPoint x="830" y="590" as="targetPoint" />
          </mxGeometry>
        </mxCell>
        <mxCell id="ZdWGNfyRv0KmOVRU79v5-94" value="" style="endArrow=none;html=1;rounded=0;" edge="1" parent="1" source="ZdWGNfyRv0KmOVRU79v5-3" target="ZdWGNfyRv0KmOVRU79v5-90">
          <mxGeometry relative="1" as="geometry">
            <mxPoint x="670" y="600" as="sourcePoint" />
            <mxPoint x="830" y="600" as="targetPoint" />
          </mxGeometry>
        </mxCell>
        <mxCell id="ZdWGNfyRv0KmOVRU79v5-95" value="" style="endArrow=none;html=1;rounded=0;" edge="1" parent="1" source="ZdWGNfyRv0KmOVRU79v5-3" target="ZdWGNfyRv0KmOVRU79v5-91">
          <mxGeometry relative="1" as="geometry">
            <mxPoint x="650" y="600" as="sourcePoint" />
            <mxPoint x="810" y="600" as="targetPoint" />
          </mxGeometry>
        </mxCell>
        <mxCell id="ZdWGNfyRv0KmOVRU79v5-96" value="batteryPercentage" style="ellipse;whiteSpace=wrap;html=1;align=center;" vertex="1" parent="1">
          <mxGeometry x="740" y="210" width="100" height="40" as="geometry" />
        </mxCell>
        <mxCell id="ZdWGNfyRv0KmOVRU79v5-97" value="batteryHealth" style="ellipse;whiteSpace=wrap;html=1;align=center;" vertex="1" parent="1">
          <mxGeometry x="650" y="480" width="100" height="40" as="geometry" />
        </mxCell>
        <mxCell id="ZdWGNfyRv0KmOVRU79v5-98" value="tirePressure" style="ellipse;whiteSpace=wrap;html=1;align=center;" vertex="1" parent="1">
          <mxGeometry x="680" y="560" width="100" height="40" as="geometry" />
        </mxCell>
        <mxCell id="ZdWGNfyRv0KmOVRU79v5-100" value="engineHealth" style="ellipse;whiteSpace=wrap;html=1;align=center;" vertex="1" parent="1">
          <mxGeometry x="690" y="260" width="100" height="40" as="geometry" />
        </mxCell>
        <mxCell id="ZdWGNfyRv0KmOVRU79v5-101" value="" style="endArrow=none;html=1;rounded=0;" edge="1" parent="1" source="ZdWGNfyRv0KmOVRU79v5-33" target="ZdWGNfyRv0KmOVRU79v5-97">
          <mxGeometry relative="1" as="geometry">
            <mxPoint x="783.3333333333333" y="410" as="sourcePoint" />
            <mxPoint x="860" y="650" as="targetPoint" />
          </mxGeometry>
        </mxCell>
        <mxCell id="ZdWGNfyRv0KmOVRU79v5-102" value="" style="endArrow=none;html=1;rounded=0;" edge="1" parent="1" source="ZdWGNfyRv0KmOVRU79v5-98" target="ZdWGNfyRv0KmOVRU79v5-33">
          <mxGeometry relative="1" as="geometry">
            <mxPoint x="720" y="640" as="sourcePoint" />
            <mxPoint x="792.6315789473683" y="410" as="targetPoint" />
          </mxGeometry>
        </mxCell>
        <mxCell id="ZdWGNfyRv0KmOVRU79v5-104" value="tireCondition" style="ellipse;whiteSpace=wrap;html=1;align=center;" vertex="1" parent="1">
          <mxGeometry x="740" y="620" width="100" height="40" as="geometry" />
        </mxCell>
        <mxCell id="ZdWGNfyRv0KmOVRU79v5-105" value="" style="endArrow=none;html=1;rounded=0;" edge="1" parent="1" source="ZdWGNfyRv0KmOVRU79v5-104" target="ZdWGNfyRv0KmOVRU79v5-33">
          <mxGeometry relative="1" as="geometry">
            <mxPoint x="880" y="540" as="sourcePoint" />
            <mxPoint x="799.2" y="410" as="targetPoint" />
          </mxGeometry>
        </mxCell>
        <mxCell id="ZdWGNfyRv0KmOVRU79v5-106" value="" style="endArrow=none;html=1;rounded=0;" edge="1" parent="1" source="ZdWGNfyRv0KmOVRU79v5-100" target="ZdWGNfyRv0KmOVRU79v5-33">
          <mxGeometry relative="1" as="geometry">
            <mxPoint x="740" y="340" as="sourcePoint" />
            <mxPoint x="789.090909090909" y="370" as="targetPoint" />
          </mxGeometry>
        </mxCell>
        <mxCell id="ZdWGNfyRv0KmOVRU79v5-107" value="" style="endArrow=none;html=1;rounded=0;" edge="1" parent="1" source="ZdWGNfyRv0KmOVRU79v5-96" target="ZdWGNfyRv0KmOVRU79v5-33">
          <mxGeometry relative="1" as="geometry">
            <mxPoint x="800" y="320" as="sourcePoint" />
            <mxPoint x="798.75" y="370" as="targetPoint" />
          </mxGeometry>
        </mxCell>
        <mxCell id="ZdWGNfyRv0KmOVRU79v5-108" value="location" style="ellipse;whiteSpace=wrap;html=1;align=center;" vertex="1" parent="1">
          <mxGeometry x="50" y="850" width="100" height="40" as="geometry" />
        </mxCell>
        <mxCell id="ZdWGNfyRv0KmOVRU79v5-109" value="latitude" style="ellipse;whiteSpace=wrap;html=1;align=center;" vertex="1" parent="1">
          <mxGeometry x="449.99999999999994" width="100" height="40" as="geometry" />
        </mxCell>
        <mxCell id="ZdWGNfyRv0KmOVRU79v5-110" value="" style="endArrow=none;html=1;rounded=0;" edge="1" parent="1" source="ZdWGNfyRv0KmOVRU79v5-45" target="ZdWGNfyRv0KmOVRU79v5-109">
          <mxGeometry relative="1" as="geometry">
            <mxPoint x="600" y="150" as="sourcePoint" />
            <mxPoint x="661.4299999999996" y="150" as="targetPoint" />
          </mxGeometry>
        </mxCell>
        <mxCell id="ZdWGNfyRv0KmOVRU79v5-111" value="longtidude" style="ellipse;whiteSpace=wrap;html=1;align=center;" vertex="1" parent="1">
          <mxGeometry x="461.43" y="70" width="100" height="40" as="geometry" />
        </mxCell>
        <mxCell id="ZdWGNfyRv0KmOVRU79v5-112" value="" style="endArrow=none;html=1;rounded=0;" edge="1" parent="1" source="ZdWGNfyRv0KmOVRU79v5-111" target="ZdWGNfyRv0KmOVRU79v5-45">
          <mxGeometry relative="1" as="geometry">
            <mxPoint x="150" y="110" as="sourcePoint" />
            <mxPoint x="310" y="110" as="targetPoint" />
          </mxGeometry>
        </mxCell>
        <mxCell id="ZdWGNfyRv0KmOVRU79v5-113" value="phoneNumber" style="ellipse;whiteSpace=wrap;html=1;align=center;" vertex="1" parent="1">
          <mxGeometry x="160" width="100" height="40" as="geometry" />
        </mxCell>
        <mxCell id="ZdWGNfyRv0KmOVRU79v5-114" value="" style="endArrow=none;html=1;rounded=0;" edge="1" parent="1" source="ZdWGNfyRv0KmOVRU79v5-45" target="ZdWGNfyRv0KmOVRU79v5-113">
          <mxGeometry relative="1" as="geometry">
            <mxPoint x="510" y="160" as="sourcePoint" />
            <mxPoint x="670" y="160" as="targetPoint" />
          </mxGeometry>
        </mxCell>
        <mxCell id="ZdWGNfyRv0KmOVRU79v5-115" value="name" style="ellipse;whiteSpace=wrap;html=1;align=center;" vertex="1" parent="1">
          <mxGeometry x="160" y="70" width="100" height="40" as="geometry" />
        </mxCell>
        <mxCell id="ZdWGNfyRv0KmOVRU79v5-116" value="" style="endArrow=none;html=1;rounded=0;" edge="1" parent="1" source="ZdWGNfyRv0KmOVRU79v5-115" target="ZdWGNfyRv0KmOVRU79v5-45">
          <mxGeometry relative="1" as="geometry">
            <mxPoint x="190" y="140" as="sourcePoint" />
            <mxPoint x="350" y="140" as="targetPoint" />
          </mxGeometry>
        </mxCell>
      </root>
    </mxGraphModel>
  </diagram>
</mxfile>
